<svg version="1.0" xmlns="http://www.w3.org/2000/svg"
 width="512.000000pt" height="512.000000pt" viewBox="0 0 512.000000 512.000000"
 preserveAspectRatio="xMidYMid meet">

<g transform="translate(0.000000,512.000000) scale(0.100000,-0.100000)"
fill="red" stroke="none">
<path d="M1064 4724 c-554 -93 -980 -539 -1053 -1103 -40 -311 47 -643 240
-911 45 -64 346 -369 1187 -1208 l1127 -1123 1121 1123 c724 725 1141 1150
1178 1200 452 618 282 1470 -371 1862 -209 125 -443 183 -693 173 -196 -8
-345 -45 -510 -127 -169 -83 -235 -136 -508 -404 l-222 -219 -223 219 c-288
284 -374 350 -570 433 -216 92 -476 124 -703 85z"/>
</g>
</svg>
